<?xml version="1.0" encoding="UTF-8"?>
<!DOCTYPE svg PUBLIC "-//W3C//DTD SVG 1.1//EN" "http://www.w3.org/Graphics/SVG/1.1/DTD/svg11.dtd">
<svg version="1.1" xmlns="http://www.w3.org/2000/svg" xmlns:xlink="http://www.w3.org/1999/xlink" x="0px" y="0px" width="128" height="128" viewBox="0, 0, 128, 128">
  <g id="Background">
    <rect x="0" y="0" width="128" height="128" fill="#000000" fill-opacity="0"/>
  </g>
  <g id="Background"/>
  <g id="Background">
    <path d="M18.093,6 L109.907,6 C116.561,6 122,11.439 122,18.093 L122,109.907 C122,116.561 116.561,122 109.907,122 L18.093,122 C11.439,122 6,116.561 6,109.907 L6,18.093 C6,11.439 11.439,6 18.093,6" fill="#727272"/>
    <path d="M58.406,83.907 L38.736,83.907 L35.361,95.243 L15.601,95.243 L39.107,30.049 L58.498,30.049 L72.421,69.288 C76.354,68.65 80.698,69.837 84.073,71.859 C95.558,78.746 110.99,64.155 94.891,53.418 C111.487,54.204 111.497,76.053 108.605,76.275 L112.57,75.974 C107.358,90.018 90.351,93.809 77.711,84.195 L81.634,95.243 L61.964,95.243 z M48.295,51.029 L45.198,62.74 L43.418,69.292 L53.719,69.292 L51.757,62.273 L48.852,51.029 z" fill="#84D0F4"/>
  </g>
  <defs/>
</svg>
